<?xml version="1.0" encoding="UTF-8" standalone="no"?>
<!-- Created with Inkscape (http://www.inkscape.org/) -->

<svg
   xmlns:dc="http://purl.org/dc/elements/1.1/"
   xmlns:cc="http://creativecommons.org/ns#"
   xmlns:rdf="http://www.w3.org/1999/02/22-rdf-syntax-ns#"
   xmlns:svg="http://www.w3.org/2000/svg"
   xmlns="http://www.w3.org/2000/svg"
   xmlns:sodipodi="http://sodipodi.sourceforge.net/DTD/sodipodi-0.dtd"
   xmlns:inkscape="http://www.inkscape.org/namespaces/inkscape"
   width="506.93701"
   height="421.4873"
   id="svg24699"
   version="1.1"
   inkscape:version="0.48.2 r9819"
   sodipodi:docname="klar_map.svg">
  <defs
     id="defs24701">
    <inkscape:perspective
       sodipodi:type="inkscape:persp3d"
       inkscape:vp_x="0 : 526.18109 : 1"
       inkscape:vp_y="0 : 1000 : 0"
       inkscape:vp_z="744.09448 : 526.18109 : 1"
       inkscape:persp3d-origin="372.04724 : 350.78739 : 1"
       id="perspective15646-5" />
    <inkscape:perspective
       id="perspective15519-5"
       inkscape:persp3d-origin="0.5 : 0.33333333 : 1"
       inkscape:vp_z="1 : 0.5 : 1"
       inkscape:vp_y="0 : 1000 : 0"
       inkscape:vp_x="0 : 0.5 : 1"
       sodipodi:type="inkscape:persp3d" />
    <inkscape:perspective
       sodipodi:type="inkscape:persp3d"
       inkscape:vp_x="0 : 0.5 : 1"
       inkscape:vp_y="0 : 1000 : 0"
       inkscape:vp_z="1 : 0.5 : 1"
       inkscape:persp3d-origin="0.5 : 0.33333333 : 1"
       id="perspective15519" />
    <inkscape:perspective
       id="perspective15646"
       inkscape:persp3d-origin="372.04724 : 350.78739 : 1"
       inkscape:vp_z="744.09448 : 526.18109 : 1"
       inkscape:vp_y="0 : 1000 : 0"
       inkscape:vp_x="0 : 526.18109 : 1"
       sodipodi:type="inkscape:persp3d" />
    <clipPath
       id="clipPath28808"
       clipPathUnits="userSpaceOnUse">
      <path
         id="path28810"
         d="m 49,13 514,0 0,767 -514,0 0,-767 z"
         inkscape:connector-curvature="0" />
    </clipPath>
    <clipPath
       id="clipPath28400"
       clipPathUnits="userSpaceOnUse">
      <path
         id="path28402"
         d="m 49,44 514,0 0,736 -514,0 0,-736 z"
         inkscape:connector-curvature="0" />
    </clipPath>
  </defs>
  <sodipodi:namedview
     id="base"
     pagecolor="#ffffff"
     bordercolor="#666666"
     borderopacity="1.0"
     inkscape:pageopacity="0.0"
     inkscape:pageshadow="2"
     inkscape:zoom="1"
     inkscape:cx="301.75697"
     inkscape:cy="286.04368"
     inkscape:document-units="px"
     inkscape:current-layer="layer1"
     showgrid="false"
     inkscape:window-width="1387"
     inkscape:window-height="856"
     inkscape:window-x="0"
     inkscape:window-y="0"
     inkscape:window-maximized="1"
     showguides="true"
     inkscape:guide-bbox="true"
     fit-margin-top="0"
     fit-margin-left="0"
     fit-margin-right="0"
     fit-margin-bottom="0" />
  <metadata
     id="metadata24704">
    <rdf:RDF>
      <cc:Work
         rdf:about="">
        <dc:format>image/svg+xml</dc:format>
        <dc:type
           rdf:resource="http://purl.org/dc/dcmitype/StillImage" />
        <dc:title></dc:title>
      </cc:Work>
    </rdf:RDF>
  </metadata>
  <g
     inkscape:label="Layer 1"
     inkscape:groupmode="layer"
     id="layer1"
     transform="translate(-9523,-2542.875)">
    <path
       style="color:#000000;fill:#4c869a;fill-opacity:1;fill-rule:nonzero;stroke:none;stroke-width:1;marker:none;visibility:visible;display:inline;overflow:visible;enable-background:accumulate"
       d="m 9523.2609,2543.3623 499.6091,0 c 0.145,0 0,0.1164 0,0.2609 l 4.5,420.4782 c -142.8904,0 -344.3573,0.2609 -504.1091,0.2609 -0.1443,-0.01 -0.2609,-0.1164 -0.2609,-0.2609 l 0,-420.4782 c 0,-0.1445 0.1164,-0.2609 0.2609,-0.2609 z"
       id="rect33363"
       inkscape:connector-curvature="0"
       sodipodi:nodetypes="sssccsss" />
    <path
       style="fill:#cccccc"
       d="m 10029.937,2542.875 c -59.0239,1.4295 -49.763,1.1042 -97.9682,1 l -30.1876,0 -0.3124,3.25 c -0.1726,1.7875 -0.7625,3.025 -1.3126,2.75 -0.5496,-0.275 -0.949,-0.725 -0.875,-1 0.074,-0.275 0.437,-1.5125 0.8126,-2.75 l 0.6874,-2.25 -77.5624,0 -77.5626,0 0,2.4375 c 0,1.3425 -0.4497,2.7226 -1,3.0625 -0.5833,0.3606 -1,-0.6528 -1,-2.4375 l 0,-3.0625 -79.5,0 -79.5,0 0,10.375 c 0,9.1696 0.374,11.3652 3.125,18.75 1.714,4.6004 3.3276,9.8191 3.5938,11.5625 0.2661,1.7433 1.555,4.1661 2.875,5.4063 1.32,1.2399 2.4066,2.8646 2.4062,3.5937 1.3303,0.357 0.3655,2.7305 0.5626,4.0937 -1.7651,5.2914 7.493,9.5359 4.9687,13.9063 -3.9218,-3.1255 -8.9433,1.828 -8.9063,5.9687 -2.9121,2.7131 -5.2926,7.5198 -1.5937,10.7813 3.5229,3.239 3.0999,9.6666 8,11.4375 2.9005,3.3113 7.7617,4.315 11.1563,6.3125 1.8513,2.3076 5.652,1.229 6.5624,4.75 1.9265,3.855 5.2364,5.5851 9,6.4687 -2.2294,0.694 -2.557,3.4478 -3.75,5.3126 -0.7008,3.9863 3.25,7.8984 -0.125,11.5 -4.1916,2.5645 -2.7911,8.1839 -5.7187,11.625 -1.4355,3.5917 -7.0848,6.3851 -4.5937,11.0937 1.0077,6.0751 -1.4402,12.281 0.4062,18.1563 1.3027,3.9337 -4.4139,4.7374 -3.375,8.75 0.9218,3.9694 4.916,7.664 4.0312,11.875 -2.5898,3.0225 -1.7433,7.6571 -5.5,10.0937 -3.2312,2.9394 -5.4236,7.108 -3,11.375 2.1051,6.0221 10.6455,5.9258 13.5,10.9063 1.5768,3.739 4.9902,6.5018 6.0313,10.6562 0.3779,0.9592 0.8772,1.5385 1.4687,1.875 -2.882,2.6663 -0.7169,8.5147 3.6876,7.3438 3.8963,-0.6441 7.6995,-0.034 10.75,2.375 12.0428,3.0947 25.7188,-1.7286 36.7812,5.2812 2.8858,1.6797 6.8139,0.4342 8.6875,3.4688 3.3154,1.1565 7.3587,0.7246 9.4687,4.2812 4.3945,4.5511 10.715,5.0468 16.4063,6.6875 5.4188,3.4842 12.6614,2.237 18.25,3.7187 2.794,3.8428 5.7486,8.91 11.375,8.0626 1.5017,1.2898 3.7501,1.5667 5.2187,0.1562 2.1539,3.7112 6.1321,1.1876 7.0313,-2.0938 2.8342,2.3525 6.8959,1.9813 9.1875,5.2188 7.1758,3.1521 11.7995,10.4227 17.25,15.7812 2.7785,2.6308 5.655,10.5786 10.5,6.9063 0.3285,-0.6173 0.6117,-1.2578 0.875,-1.9063 -0.318,3.8995 -0.2553,7.8454 3.3438,9.7188 3.8568,-0.4051 6.5087,3.2251 6.0937,6.9062 0.7956,3.4624 -0.1335,7.0032 0.1875,10.6563 2.8565,-0.5717 0.8888,4.8834 3.375,6.4063 5.056,4.2224 10.3032,8.119 15.0312,12.6874 2.0241,1.62 3.3641,-2.9281 4,0.5313 2.6555,4.1636 7.8412,5.5183 11.25,8.875 5.1702,3.3377 11.1444,5.1827 16.8126,7.0937 3.8815,1.7437 7.7776,7.9029 12.5,5.4063 0.9781,-2.1886 5.4784,-0.513 5.3437,-4.0937 0.1665,-18.3546 -2.7127,-7.1976 1.5937,0.9062 0.2248,0 0.4411,-0.2337 0.5626,-0.625 l 0.2187,1.0938 15.9063,-0.3438 0,-0.062 c 3.697,0.1519 4.5851,0.6228 5.4062,1.9375 0.6869,1.1 1.8515,2 2.5625,2 2.7794,0 11.1662,5.131 13.9687,8.5312 1.7364,2.1061 3.4761,5.9294 4.25,9.2813 0.7243,3.1361 2.173,7.4152 3.2188,9.5313 1.0457,2.1158 1.6823,4.4379 1.4062,5.1562 -0.2752,0.7183 0.1503,3.4467 0.9376,6.0625 1.5874,5.2757 1.7568,8.6323 0.4687,10.3125 58.4282,0 63.7299,0.1072 110.2495,-0.5 l 0,-0.125 0,0 c 0,0 0,-0.1054 0,-0.25 -2.306,-168.0316 0,-285.8145 0,-420 z m -370.3432,223 c 0.3888,0.5738 0.9343,1.035 1.625,1.4062 -0.032,0 -0.062,-0.01 -0.094,0 -1.1755,0.5976 -1.9903,1.2014 -3.0312,1.4688 0.2706,-0.1519 0.5461,-0.3104 0.8124,-0.4688 0.2956,-0.7901 0.5165,-1.5913 0.6876,-2.4062 z m 127.0937,3.2188 c 0.041,0.013 0.084,0.018 0.125,0.031 -0.044,0.093 -0.084,0.1868 -0.125,0.2812 0,-0.1037 0,-0.2087 0,-0.3124 z m -1.375,39.6562 c 0.1336,0.6482 0.2888,1.2958 0.4687,1.9375 -0.2947,-0.2663 -0.603,-0.5477 -0.9374,-0.7813 0.094,-0.01 0.1875,0.01 0.2812,0 0.068,-0.3867 0.1252,-0.7689 0.1875,-1.1562 z"
       id="path31342"
       inkscape:connector-curvature="0"
       sodipodi:nodetypes="ccccccccccscscccsccccccccccccccccccccccccccccccccccccccccccccccccccccccsccccccccscccccccccccccccccccc" />
    <path
       style="fill:#ff7f00;fill-opacity:1"
       d="m 9640.9628,2773.6099 c 7.5532,-2.9626 14.5275,-5.6511 15.4984,-5.9745 1.5976,-0.5321 1.7117,-1.7057 1.2019,-12.3634 -1.3789,-28.8309 -1.3706,-67.8146 0.017,-77.7756 0.7659,-5.5 1.5329,-11.35 1.7044,-13 l 0.3118,-3 -7.5,-0.6384 c -26.7907,-2.2803 -26,-2.2648 -26,-0.5113 0,0.9073 -0.4193,1.6497 -0.9318,1.6497 -1.0542,0 -0.8382,3.9452 0.3185,5.8167 1.1796,1.9087 -0.3509,7.144 -2.4766,8.4715 -1.0647,0.6649 -1.9101,2.3157 -1.9101,3.7298 0,1.3954 -0.7005,3.5371 -1.5567,4.7595 -0.8562,1.2224 -1.2716,2.2225 -0.9231,2.2225 0.3485,0 -0.7656,1.3993 -2.4759,3.1095 -2.39,2.3901 -2.9363,3.6049 -2.3606,5.25 0.8244,2.3565 0.8549,6.171 0.095,11.8645 -0.2735,2.0483 -0.25,3.9713 0.052,4.2734 0.3022,0.3021 0.5903,2.1507 0.6404,4.1079 0.063,2.4549 -0.4614,3.8543 -1.69,4.5118 -1.9153,1.0251 -2.3638,3.8877 -0.8511,5.4329 0.5115,0.5225 1.6176,2.9604 2.458,5.4176 1.3395,3.9166 1.3482,4.6664 0.07,6.0788 -0.8019,0.8861 -1.458,2.5504 -1.458,3.6985 0,1.1481 -1.7648,3.98 -3.9218,6.2932 -2.157,2.3132 -3.7696,4.7134 -3.5835,5.3338 0.186,0.6205 0.5913,2.2934 0.9006,3.7177 0.4258,1.9612 2.1449,3.393 7.0835,5.8996 4.3885,2.2275 6.5212,3.8989 6.5212,5.1107 0,0.9904 0.6039,2.1606 1.3421,2.6004 0.7382,0.4398 2.1748,2.7122 3.1924,5.0497 1.0177,2.3375 1.9963,4.25 2.1747,4.25 0.1784,0 6.5043,-2.4239 14.0576,-5.3865 z"
       id="path31556"
       inkscape:connector-curvature="0" />
    <rect
       y="-1122.0553"
       x="8200.5303"
       height="910.81281"
       width="1116.4802"
       id="rect6688"
       style="opacity:0.1;color:#000000;fill:#ffffff;fill-opacity:0;fill-rule:nonzero;stroke:none;stroke-width:7.14531565;marker:none;visibility:visible;display:inline;overflow:visible;enable-background:accumulate" />
    <g
       id="g28394"
       transform="matrix(1.25,0,0,-1.25,4605.7018,4781.3652)" />
    <g
       id="g28804"
       transform="matrix(1.25,0,0,-1.25,4605.7018,4781.3652)">
      <g
         id="g28806"
         clip-path="url(#clipPath28808)">
        <g
           id="g28812"
           transform="matrix(1.023331,0,0,1.023331,49,44)" />
        <g
           id="g28814"
           transform="matrix(1.023331,0,0,1.023331,49,44)" />
        <g
           id="g28816"
           transform="matrix(1.023331,0,0,1.023331,49,44)" />
        <g
           id="g28818"
           transform="matrix(1.023331,0,0,1.023331,49,44)" />
        <g
           id="g28820"
           transform="matrix(1.023331,0,0,1.023331,49,44)" />
        <g
           id="g28822"
           transform="matrix(1.023331,0,0,1.023331,49,44)" />
        <g
           id="g28824"
           transform="matrix(1.023331,0,0,1.023331,49,44)" />
        <g
           id="g28826"
           transform="matrix(1.023331,0,0,1.023331,49,44)" />
        <g
           id="g28828"
           transform="matrix(1.023331,0,0,1.023331,49,44)" />
        <g
           id="g28830"
           transform="matrix(1.023331,0,0,1.023331,49,44)" />
        <g
           id="g28832"
           transform="matrix(1.023331,0,0,1.023331,49,44)" />
        <g
           id="g28834"
           transform="matrix(1.023331,0,0,1.023331,49,44)" />
        <g
           id="g28836"
           transform="matrix(1.023331,0,0,1.023331,49,44)" />
        <g
           id="g28838"
           transform="matrix(1.023331,0,0,1.023331,49,44)" />
        <g
           id="g28840"
           transform="matrix(1.023331,0,0,1.023331,49,44)" />
        <g
           id="g28842"
           transform="matrix(1.023331,0,0,1.023331,49,44)" />
        <g
           id="g28844"
           transform="matrix(1.023331,0,0,1.023331,49,44)" />
        <g
           id="g28846"
           transform="matrix(1.023331,0,0,1.023331,49,44)" />
        <g
           id="g28848"
           transform="matrix(1.023331,0,0,1.023331,49,44)" />
        <g
           id="g28850"
           transform="matrix(1.023331,0,0,1.023331,49,44)" />
        <path
           inkscape:connector-curvature="0"
           d="m 49,12.79862 515.759,0 L 564.759,44 49,44 49,12.79862 z"
           style="fill:#ffffff;fill-opacity:1;fill-rule:nonzero;stroke:none"
           id="path28852" />
        <g
           id="g28854"
           transform="matrix(1.023331,0,0,1.023331,49,44)">
          <path
             inkscape:connector-curvature="0"
             d="m 235.53,-22.59 81.88,0"
             style="fill:none;stroke:#0000ff;stroke-width:0.45175999;stroke-linecap:butt;stroke-linejoin:miter;stroke-miterlimit:10;stroke-opacity:1;stroke-dasharray:none"
             id="path28856" />
        </g>
        <g
           id="g28858"
           transform="matrix(1.023331,0,0,1.023331,49,44)">
          <text
             transform="matrix(1,0,0,-1,140.1,-13.55)"
             id="text28860">
            <tspan
               style="font-size:6.78000021px;font-variant:normal;font-weight:normal;writing-mode:lr-tb;fill:#000000;fill-opacity:1;fill-rule:nonzero;stroke:none;font-family:Times;-inkscape-font-specification:Times-Roman"
               x="0 4.14258 7.5325799 9.4174204 12.05484 13.74984 16.76016 20.15016 23.540159 25.424999 28.43532 31.825319 33.710159 35.405159 38.795158 42.185162 47.080318 50.470322 52.35516 55.745159 58.755482 62.145481 65.1558 68.545799 70.240799 72.498543 74.756279 78.146278 83.42112 85.116119 88.506119 91.896118 95.286118 96.981117 100.37112 103.76112 107.15112 108.84612 112.23612 115.62612 119.01612 120.71112 124.10112 127.49112 129.18613 132.57613 135.96613 137.66112 141.4308 144.8208 148.2108 149.90581 151.6008 154.9908 158.3808 160.07581 163.84547 166.8558 170.2458 171.9408 175.3308 178.72079 182.11079 185.50079 187.1958 190.5858 193.9758 195.86064 199.25064 202.64064 204.52548 207.91548 211.30548 213.00047 217.89565"
               y="0"
               sodipodi:role="line"
               id="tspan28862">This content downloaded from 128.111.121.42 on Sun, 29 Sep 2013 00:13:51 AM</tspan>
          </text>
        </g>
        <g
           id="g28864"
           transform="matrix(1.023331,0,0,1.023331,49,44)">
          <text
             transform="matrix(1,0,0,-1,186.59,-20.33)"
             id="text28866">
            <tspan
               style="font-size:6.78000021px;font-variant:normal;font-weight:normal;writing-mode:lr-tb;fill:#000000;fill-opacity:1;fill-rule:nonzero;stroke:none;font-family:Times;-inkscape-font-specification:Times-Roman"
               x="0 4.8951602 6.7800002 8.6648397 10.35984 13.74984 16.38726 19.397579 21.092581 23.73 27.120001 30.51 32.39484 35.405159 38.415482 40.30032 41.995319 43.880161 47.270161"
               y="0"
               sodipodi:role="line"
               id="tspan28868">All use subject to</tspan>
          </text>
        </g>
        <g
           id="g28870"
           transform="matrix(1.023331,0,0,1.023331,49,44)">
          <text
             transform="matrix(1,0,0,-1,235.5552,-20.33)"
             id="text28872">
            <tspan
               style="font-size:6.78000021px;font-variant:normal;font-weight:normal;writing-mode:lr-tb;fill:#0000ff;fill-opacity:1;fill-rule:nonzero;stroke:none;font-family:Times;-inkscape-font-specification:Times-Roman"
               x="0 2.6374199 6.4071002 10.54968 15.44484 19.9671 21.6621 25.80468 28.815001 31.072741 36.34758 38.985001 40.68 43.690319 47.080318 50.470322 52.165321 56.68758 60.077579 63.467579 66.857582 68.742416 70.627258 72.5121 75.9021 79.292099"
               y="0"
               sodipodi:role="line"
               id="tspan28874">JSTOR Terms and Conditions</tspan>
          </text>
        </g>
      </g>
    </g>
    <path
       style="fill:#f781bf;fill-opacity:1"
       d="m 9771.3499,2902.7685 c -1.2644,-0.789 -0.5265,-2.8039 -1.893,-3.5086 -2.4142,-0.8509 -5.0187,-0.3579 -7.498,-0.8113 -0.6246,-1.3895 0.9895,-2.6675 0.4311,-4.0618 0.01,-2.5691 3.1348,-4.2904 5.3985,-3.2832 3.0157,0.6409 5.9758,2.165 9.1331,1.6389 1.2184,-0.4749 3.0586,0.506 3.8218,-0.9362 0.6731,-1.2511 1.1762,-2.8878 2.6754,-3.3677 1.4387,-0.2142 2.3256,1.2287 2.7641,2.3873 0.6332,1.6294 2.7435,0.9038 3.9484,1.6519 1.021,1.0956 -0.6316,2.3623 -0.2658,3.5924 0.569,1.4252 -0.2153,3.0586 -1.8916,2.9061 -1.1809,0.1168 -2.3407,0.5692 -3.5178,0.2108 -1.1457,-0.2343 -2.465,-0.1186 -3.278,0.8211 -1.0441,0.9557 -2.2141,1.9674 -3.6953,2.0462 -1.3719,0.4967 -2.4818,1.9644 -4.0771,1.6376 -0.7419,-0.1633 -1.3943,-0.5692 -2.0558,-0.9235 z"
       id="path30892"
       inkscape:connector-curvature="0" />
    <path
       style="fill:#f781bf;fill-opacity:1"
       d="m 9774.1553,2896.8796 c -0.3399,-0.55 -1.068,-1 -1.618,-1 -0.55,0 -0.7219,0.45 -0.382,1 0.3399,0.55 1.068,1 1.618,1 0.55,0 0.7219,-0.45 0.382,-1 z"
       id="path30890"
       inkscape:connector-curvature="0" />
    <path
       style="fill:#4daf4a;fill-opacity:1;stroke:#4daf4a;stroke-opacity:1"
       d="m 9799.875,2701.2188 c -0.6184,-0.027 -0.9812,0.2465 -1.3438,0.8124 -1.8527,2.8923 1.2344,13.5753 4.5,15.5938 0.6782,0.4192 2.3042,2.325 3.625,4.25 1.321,1.925 2.6772,3.725 3,4 0.323,0.275 2.7653,3.3125 5.4376,6.75 2.6723,3.4375 5.1918,6.25 5.625,6.25 0.4331,0 2.0053,-0.4437 3.4687,-1 3.6819,-1.3999 9.9056,0.5397 15.0937,4.7188 3.7976,3.0587 4.1227,3.6805 3.875,7.5624 -0.1481,2.324 -2.0423,10.2771 -4.1874,17.6876 l -3.875,13.4687 -7.4688,1.1875 c -7.3546,1.1578 -7.5999,1.1383 -16.4688,-2.1875 -4.9499,-1.8563 -12.025,-4.9684 -15.7187,-6.9063 -3.6937,-1.9377 -6.8945,-3.5312 -7.125,-3.5312 -0.2305,0 -0.7617,7.9875 -1.1563,17.75 l -0.7187,17.75 3.9687,12.0938 3.9376,12.0624 -0.7813,10.9063 c -0.8344,11.6899 -0.3722,13.4375 3.5937,13.4375 2.6734,0 5.5,3.8355 5.5,7.4688 0,1.2059 0.2349,1.9751 0.625,2.3124 l -0.125,2.75 c -0.4822,0.625 -0.4805,1.3205 -0.094,2.5938 l -0.062,1.375 0.4375,-0.125 c 0.655,1.8209 1.2187,4.2649 1.2187,5.4688 0,1.5032 1.5074,3.2304 4.75,5.4374 2.6096,1.7763 6.2097,4.7613 8,6.6563 3.3042,3.497 4.0942,3.504 2.2188,0 -0.8682,-1.6223 -0.702,-1.9375 1.0312,-1.9375 1.1366,0 2.3174,0.7875 2.625,1.75 1.368,4.2802 2.8765,6.2646 5.875,7.6875 1.7697,0.8397 3.8048,2.2497 4.5313,3.125 1.5843,1.909 13.5091,7.4375 16.0313,7.4375 0.9812,0 3.7134,1.5549 6.0937,3.4375 4.3893,3.4716 6.8438,4.3773 6.8437,2.5625 0,-0.55 1.1043,-1 2.4688,-1 2.6783,0 2.6515,0.4274 1.0625,-12.6875 -0.3097,-2.5562 0.6634,-4.6719 4.9375,-10.8125 9.352,-10.9216 4.913,-5.2689 7.4375,-11.5 0.4445,0 2.7381,-2.8125 5.0937,-6.25 2.3558,-3.4375 5.5643,-7.375 7.125,-8.75 l 2.8126,-2.5 -5.2188,-5.5625 c -2.2861,-2.4376 -4.1954,-4.2066 -6.1562,-5.4687 l -2.1563,-7.2188 c 0.1966,-0.4447 0.4115,-0.8953 0.6563,-1.375 1.832,-3.5911 1.8879,-4.6837 0.9062,-15.0938 -0.9998,-10.6019 -1.4598,-12.1543 -8.1562,-27.9687 -7.6404,-18.0438 -7.4403,-16.7832 -3.75,-25.3125 0.4758,-1.1 1.9549,-4.5151 3.2812,-7.5938 l 2.4062,-5.5937 10.5313,-3.75 10.5313,-3.75 -1.6876,-3.6563 c -9.1674,-19.8442 -12.6598,-26.2284 -14.5624,-26.5937 -1.1294,-0.2167 -7.4626,-0.9142 -14.0626,-1.5313 -11.5686,-1.0816 -18.5239,-2.0923 -27,-3.9687 -2.1999,-0.487 -6.6999,-1.435 -10,-2.0937 -5.3287,-1.0641 -16.6477,-5.1893 -26.375,-9.625 -1.408,-0.6423 -2.2878,-0.9735 -2.9062,-1 z"
       id="path30374"
       inkscape:connector-curvature="0"
       sodipodi:nodetypes="ccsccssccccccccscccccsscccccscccscccsscsscccccccccsscccccccssccc" />
    <path
       style="fill:#a65628;fill-opacity:1"
       d="m 9783.9787,2804.6293 c 0.3024,-1.7875 0.5933,-10.46 0.6466,-19.2722 l 0.097,-16.0222 -13.024,-3.2174 c -7.1632,-1.7695 -15.1666,-4.1807 -17.7853,-5.358 -2.6187,-1.1774 -6.7863,-3.0342 -9.2613,-4.1263 -2.475,-1.092 -8.1,-3.8303 -12.5,-6.085 -4.4,-2.2547 -9.8,-4.9766 -12,-6.0486 -2.2,-1.072 -4.675,-2.4804 -5.5,-3.1296 -0.825,-0.6492 -3.525,-1.963 -6,-2.9195 -2.475,-0.9564 -5.175,-2.3158 -6,-3.0208 -0.825,-0.705 -2.6545,-1.555 -4.0656,-1.8889 -1.4111,-0.3338 -3.6174,-1.5193 -4.903,-2.6343 -1.2856,-1.115 -2.8813,-2.0272 -3.5461,-2.0272 -0.6648,0 -4.3084,-1.4062 -8.097,-3.1249 -5.3413,-2.4231 -8.7748,-3.2429 -15.2881,-3.6503 l -8.3997,-0.5254 0.8221,15.4003 c 0.4521,8.4702 0.857,17.0824 0.8997,19.1383 -1.6442,-4.9185 0.8158,4.5006 0.5777,7.1954 0,2.0595 0.3109,2.1973 29.5524,13.0999 14.2712,5.3209 28.6476,10.9188 31.9476,12.4398 33.0512,15.2337 43.2425,18.7319 55.1387,18.9265 l 6.1387,0.1004 0.5497,-3.25 z"
       id="path30310"
       inkscape:connector-curvature="0"
       sodipodi:nodetypes="cscsccssscscsssscsccsssccc" />
    <path
       style="fill:#e41a1c;fill-opacity:1"
       d="m 9667.7188,2624.5312 c -0.038,0.011 -0.069,0.035 -0.094,0.063 -0.4002,0.436 -1.7168,8.2062 -2.9062,17.2812 -1.1896,9.075 -2.8458,21.1043 -3.6876,26.7188 1.6922,13.6909 -3.3899,25.3155 -1.125,49.7812 0.6876,0.231 4.175,0.5441 7.75,0.7188 7.8967,0.3856 13.8687,2.7741 39,15.5 47.2598,23.9308 51.4606,25.6811 70.7188,29.875 9.354,2.0369 18.3694,5.2512 22.3438,7.9687 1.9545,1.3365 4.4295,2.4341 5.5,2.4375 1.0704,0 3.2875,0.7191 4.9374,1.5938 1.65,0.8746 4.3204,1.6893 5.9376,1.8124 1.617,0.1234 3.1263,0.7853 3.3437,1.4376 0.2174,0.6521 0.765,0.9367 1.2187,0.6562 0.4538,-0.2804 2.7695,-0.5496 5.1563,-0.625 6.0805,-0.1922 7.1443,-1.0224 8.6875,-6.5312 0.7468,-2.6659 2.1834,-7.5438 3.1562,-10.8438 0.973,-3.3 2.0779,-7.9046 2.4688,-10.25 0.6541,-3.9256 0.4595,-4.5146 -2.4688,-7.25 -4.4014,-4.1115 -10.0513,-5.541 -13.9374,-3.5312 -1.6317,0.8436 -3.1687,1.5312 -3.4063,1.5312 -0.2375,0 -5.8665,-6.7227 -12.5313,-14.9375 l -12.125,-14.9375 0,-7.0312 c 0,-3.8659 -0.64,-8.9557 -1.4062,-11.3126 -3.3455,-10.2896 -11.6321,-37.0352 -14.0312,-45.2812 -1.4402,-4.95 -3.169,-10.0586 -3.8438,-11.375 -1.518,-2.9611 -13.265,-9.2531 -16.125,-8.625 -1.1456,0.2516 -9.2937,2.174 -18.0938,4.25 -15.9064,3.7523 -16.0905,3.7556 -31.5,3.1562 -8.5249,-0.3315 -19.7261,-1.3604 -24.875,-2.2812 -9.0401,-1.6167 -9.4991,-1.8222 -13.4062,-6.1875 -2.0861,-2.3309 -4.0823,-3.9471 -4.6562,-3.7813 z"
       id="path30280"
       inkscape:connector-curvature="0" />
    <path
       style="fill:#377eb8;fill-opacity:1"
       d="m 9660.1189,2655.6293 c 0.7122,-4.1487 4.5327,-31.9406 4.5327,-32.9727 0,-0.4275 -0.81,-0.7773 -1.8,-0.7773 -0.99,0 -2.2275,-0.406 -2.75,-0.9022 -0.5225,-0.4961 -2.975,-1.598 -5.45,-2.4486 -9.4846,-3.2596 -15.2089,-5.5777 -16.5766,-6.7128 -0.7814,-0.6485 -4.8475,-5.8494 -9.0358,-11.5577 -4.3742,-5.9616 -8.3116,-10.3656 -9.2514,-10.3479 -3.2563,0.061 -20.6228,7.5438 -20.8769,8.9948 -0.1421,0.8109 1.0915,2.9979 2.7412,4.8599 2.0259,2.2867 2.9995,4.4428 2.9995,6.643 0,3.4309 -2.6241,5.6148 -3.6219,3.0144 -0.863,-2.2489 -5.3781,0.2384 -5.3781,2.9626 0,1.2015 -0.9,2.999 -2,3.9945 -2.4954,2.2583 -2.5505,4.6918 -0.1553,6.8595 1.0146,0.9182 2.4366,3.4629 3.1601,5.655 0.7234,2.192 1.6933,3.9855 2.1553,3.9855 0.4619,0 1.6336,0.7875 2.6036,1.75 1.8459,1.8315 6.6846,4.3834 9.2181,4.8615 0.8151,0.1538 1.6401,0.7541 1.8334,1.334 0.1933,0.58 1.2036,1.0545 2.2451,1.0545 1.0415,0 2.6879,1.2375 3.6587,2.75 3.782,5.8924 4.7933,6.4457 13.464,7.3676 4.5744,0.4863 11.692,1.2734 15.817,1.7492 12.3762,1.4275 11.8433,1.518 12.4673,-2.1168 z"
       id="path30232"
       inkscape:connector-curvature="0" />
    <path
       style="fill:#984ea3;fill-opacity:1"
       d="m 9790.778,2838.4935 c 0.6873,-6.9296 0.4747,-8.8521 -1.8234,-16.4877 -1.4308,-4.7539 -3.3294,-9.206 -4.2192,-9.8935 -0.8897,-0.6875 -3.8941,-1.2504 -6.6765,-1.2508 -7.7408,0 -19.4072,-2.7068 -25.9494,-6.0179 -3.2397,-1.6397 -6.4013,-2.9813 -7.0257,-2.9813 -0.6245,0 -9.9168,-3.9839 -20.6497,-8.8532 -21.6655,-9.8291 -24.7535,-10.9876 -30.1841,-11.3236 -2.2844,-0.1413 -3.75,-0.7383 -3.75,-1.5276 0,-0.7126 -0.6967,-1.2956 -1.5483,-1.2956 -0.8516,0 -3.4111,-0.9 -5.6878,-2 -2.2768,-1.1 -4.9417,-2 -5.9221,-2 -0.9804,0 -4.1584,-1.0722 -7.0622,-2.3827 -8.7302,-3.9398 -9.7796,-4.1001 -9.7796,-1.4936 0,2.0532 -0.1138,2.103 -1.2514,0.5472 -1.1547,-1.5792 -2.4683,-1.2694 -17,4.0083 -14.3004,5.1937 -15.7486,5.9379 -15.7486,8.0927 0,2.2291 0.3208,2.3582 5.2872,2.1282 3.9625,-0.1836 5.831,0.2207 7.4576,1.6134 1.8684,1.5998 4.1224,1.8813 16.1991,2.0233 13.0532,0.1536 14.3837,0.3492 19.1347,2.8141 2.8083,1.457 6.3663,2.6491 7.9067,2.6491 1.567,0 3.0543,0.6607 3.3763,1.5 0.3412,0.8891 1.8442,1.5 3.6904,1.5 2.1953,0 4.0532,0.9594 6.2938,3.25 3.1675,3.2382 8.5247,5.75 12.2638,5.75 1.0821,0 3.7328,0.9 5.8904,2 4.2985,2.1915 9.3976,1.6969 14.3777,2.381 1.58,-0.8456 3.5487,1.642 4.4716,2.9042 0.7747,1.0595 2.8002,5.2935 5.918,5.3561 2.6072,0.052 4.7403,0.5432 4.7403,1.0908 0,0.5476 0.7237,0.395 1.6082,-0.3391 1.3592,-1.128 1.8004,-1.0719 2.8489,0.362 0.6824,0.9332 1.4898,1.4475 1.7944,1.143 0.7036,-0.7037 2.7191,-5.9359 4.8475,-3.648 0.8954,0.9625 2.518,1.75 3.6057,1.75 1.0878,0 2.7922,0.9 3.7877,2 0.9955,1.1 2.4172,2 3.1594,2 1.6657,0 15.6536,14.1121 19.1228,19.2923 3.9257,5.8621 5.5691,4.6829 6.4958,-4.6611 z"
       id="path32255"
       inkscape:connector-curvature="0"
       sodipodi:nodetypes="ssccssscsscscssssccssscsssscscscccsssscs" />
    <path
       style="fill:#f781bf;fill-opacity:1"
       d="m 9728.2077,2893.4776 c 2.2495,-1.1505 9.0724,-1.0945 12.2152,0.1004 1.6878,0.6417 2.7442,0.6147 3.1742,-0.081 0.3545,-0.5736 1.7204,-0.7728 3.0354,-0.4427 1.3496,0.3387 2.3909,0.1562 2.3909,-0.419 0,-0.5605 0.9,-1.9191 2,-3.0191 2,-2 2,-2 0,-2 -1.3333,0 -2,-0.6666 -2,-2 0,-1.619 -0.6667,-2 -3.5,-2 -2.4071,0 -3.5,0.4574 -3.5,1.4648 0,2.2204 -3.8248,3.8138 -7.3648,3.0682 -1.7244,-0.3631 -4.4852,-0.7849 -6.1352,-0.9371 -2.6694,-0.2464 -3.0342,-0.6802 -3.3104,-3.9364 -0.2055,-2.4238 -0.8099,-3.6595 -1.7898,-3.6595 -0.8137,0 -3.2436,-0.9 -5.3998,-2 -2.1562,-1.1 -5.2882,-2 -6.9602,-2 -1.876,0 -3.0398,-0.5137 -3.0398,-1.3417 0,-2.1783 -10.1269,-4.8008 -11.8985,-3.0813 -0.2193,0.2127 0.7737,2.0824 2.2064,4.1549 1.8913,2.7356 2.4715,4.6084 2.1174,6.8349 -0.356,2.2388 0.061,3.5631 1.5435,4.905 1.1172,1.011 2.0312,2.5685 2.0312,3.4612 0,3.4562 18.7204,5.723 24.1843,2.9284 z"
       id="path32951"
       inkscape:connector-curvature="0" />
    <path
       style="fill:#f781bf;fill-opacity:1"
       d="m 9676.9965,2891.893 4.1284,-0.5537 -0.3008,-4.1029 c -0.2155,-2.9407 -0.7894,-4.1956 -2.026,-4.4301 -1.8577,-0.3523 -7.7747,-5.1785 -7.7747,-6.3414 0,-0.3882 0.6735,-1.3793 1.4966,-2.2024 1.5319,-1.5319 1.0227,-1.5988 -12.9966,-1.7064 -3.7311,-0.029 -8.9931,0.687 -10.6692,1.4511 -1.0239,0.4668 -2.6791,0.099 -4.2812,-0.9505 -1.4366,-0.9413 -2.8626,-1.4608 -3.1689,-1.1546 -0.5279,0.528 2.6722,5.5991 5.3693,8.5085 0.6875,0.7417 1.25,2.1266 1.25,3.0777 0,2.9195 2.4112,7.1119 4.095,7.1201 0.8773,0 2.4062,0.9041 3.3976,1.9997 1.4098,1.5578 2.9765,1.9648 7.1894,1.8676 2.9627,-0.068 5.6722,0.1614 6.0212,0.5104 0.349,0.3489 1.4236,-0.08 2.388,-0.9525 0.9645,-0.8728 3.6113,-1.8361 5.8819,-2.1406 z"
       id="path32947"
       inkscape:connector-curvature="0" />
    <path
       style="fill:#f781bf;fill-opacity:1"
       d="m 9633.0234,2867.4245 c 0,-0.4812 -1.575,-2.45 -3.5,-4.375 -1.925,-1.925 -3.5,-3.9508 -3.5,-4.5018 0,-0.6589 -0.6599,-0.6487 -1.9276,0.03 -1.0601,0.5674 -2.6432,0.757 -3.5179,0.4213 -1.956,-0.7506 -7.7373,1.5126 -6.9828,2.7335 0.3005,0.4862 2.2298,0.884 4.2873,0.884 4.044,0 6.141,1.4034 6.141,4.1096 0,1.3697 0.8949,1.6962 4.5,1.6417 2.475,-0.037 4.5,-0.4618 4.5,-0.943 z"
       id="path32943"
       inkscape:connector-curvature="0" />
    <text
       xml:space="preserve"
       style="font-size:12px;font-style:normal;font-variant:normal;font-weight:normal;font-stretch:normal;text-align:start;line-height:125%;letter-spacing:0px;word-spacing:0px;writing-mode:lr-tb;text-anchor:start;fill:#000000;fill-opacity:1;stroke:none;font-family:Serif;-inkscape-font-specification:Serif"
       x="9574"
       y="2625.3623"
       id="text35482"
       sodipodi:linespacing="125%"><tspan
         sodipodi:role="line"
         id="tspan35484"
         x="9574"
         y="2625.3623">Obispeño</tspan></text>
    <text
       xml:space="preserve"
       style="font-size:12px;font-style:normal;font-variant:normal;font-weight:normal;font-stretch:normal;text-align:start;line-height:125%;letter-spacing:0px;word-spacing:0px;writing-mode:lr-tb;text-anchor:start;fill:#000000;fill-opacity:1;stroke:none;font-family:Nanum Pen Script;-inkscape-font-specification:Nanum Pen Script"
       x="9705"
       y="2693.3623"
       id="text35486"
       sodipodi:linespacing="125%"><tspan
         sodipodi:role="line"
         id="tspan35488"
         x="9705"
         y="2693.3623"
         style="font-family:serif;-inkscape-font-specification:serif">Cuyama</tspan></text>
    <text
       sodipodi:linespacing="125%"
       id="text35490"
       y="2717.3623"
       x="9588"
       style="font-size:12px;font-style:normal;font-variant:normal;font-weight:normal;font-stretch:normal;text-align:start;line-height:125%;letter-spacing:0px;word-spacing:0px;writing-mode:lr-tb;text-anchor:start;fill:#000000;fill-opacity:1;stroke:none;font-family:Nanum Pen Script;-inkscape-font-specification:Nanum Pen Script"
       xml:space="preserve"><tspan
         style="font-family:serif;-inkscape-font-specification:serif"
         y="2717.3623"
         x="9588"
         id="tspan35492"
         sodipodi:role="line">Purisimeño</tspan></text>
    <text
       xml:space="preserve"
       style="font-size:12px;font-style:normal;font-variant:normal;font-weight:normal;font-stretch:normal;text-align:start;line-height:125%;letter-spacing:0px;word-spacing:0px;writing-mode:lr-tb;text-anchor:start;fill:#000000;fill-opacity:1;stroke:none;font-family:Nanum Pen Script;-inkscape-font-specification:Nanum Pen Script"
       x="9684"
       y="2768.3623"
       id="text35494"
       sodipodi:linespacing="125%"><tspan
         sodipodi:role="line"
         id="tspan35496"
         x="9684"
         y="2768.3623"
         style="font-family:serif;-inkscape-font-specification:serif">Ineseño</tspan></text>
    <text
       sodipodi:linespacing="125%"
       id="text35498"
       y="2799.3623"
       x="9665"
       style="font-size:12px;font-style:normal;font-variant:normal;font-weight:normal;font-stretch:normal;text-align:start;line-height:125%;letter-spacing:0px;word-spacing:0px;writing-mode:lr-tb;text-anchor:start;fill:#000000;fill-opacity:1;stroke:none;font-family:Nanum Pen Script;-inkscape-font-specification:Nanum Pen Script"
       xml:space="preserve"><tspan
         style="font-family:serif;-inkscape-font-specification:serif"
         y="2799.3623"
         x="9665"
         id="tspan35500"
         sodipodi:role="line">Babareño</tspan></text>
    <text
       xml:space="preserve"
       style="font-size:12px;font-style:normal;font-variant:normal;font-weight:normal;font-stretch:normal;text-align:start;line-height:125%;letter-spacing:0px;word-spacing:0px;writing-mode:lr-tb;text-anchor:start;fill:#000000;fill-opacity:1;stroke:none;font-family:Nanum Pen Script;-inkscape-font-specification:Nanum Pen Script"
       x="9808"
       y="2815.3623"
       id="text35502"
       sodipodi:linespacing="125%"><tspan
         sodipodi:role="line"
         id="tspan35504"
         x="9808"
         y="2815.3623"
         style="font-family:serif;-inkscape-font-specification:serif">Ventureño</tspan></text>
    <text
       sodipodi:linespacing="125%"
       id="text35506"
       y="2732.3623"
       x="9817"
       style="font-size:12px;font-style:normal;font-variant:normal;font-weight:normal;font-stretch:normal;text-align:start;line-height:125%;letter-spacing:0px;word-spacing:0px;writing-mode:lr-tb;text-anchor:start;fill:#000000;fill-opacity:1;stroke:none;font-family:Nanum Pen Script;-inkscape-font-specification:Nanum Pen Script"
       xml:space="preserve"><tspan
         style="font-family:serif;-inkscape-font-specification:serif"
         y="2732.3623"
         x="9817"
         id="tspan35508"
         sodipodi:role="line">Emigdiano</tspan></text>
    <text
       xml:space="preserve"
       style="font-size:12px;font-style:normal;font-variant:normal;font-weight:normal;font-stretch:normal;text-align:start;line-height:125%;letter-spacing:0px;word-spacing:0px;writing-mode:lr-tb;text-anchor:start;fill:#000000;fill-opacity:1;stroke:none;font-family:Nanum Pen Script;-inkscape-font-specification:Nanum Pen Script"
       x="9542.9219"
       y="2916.0232"
       id="text35510"
       sodipodi:linespacing="125%"><tspan
         sodipodi:role="line"
         id="tspan35512"
         x="9542.9219"
         y="2916.0232"
         style="font-style:normal;font-variant:normal;font-weight:normal;font-stretch:normal;font-family:Sans;-inkscape-font-specification:Times">Pacific Ocean</tspan></text>
    <text
       xml:space="preserve"
       style="font-size:22.98458862px;font-style:normal;font-variant:normal;font-weight:normal;font-stretch:normal;text-align:start;line-height:125%;letter-spacing:0px;word-spacing:0px;writing-mode:lr-tb;text-anchor:start;fill:#000000;fill-opacity:1;stroke:none;font-family:Nanum Pen Script;-inkscape-font-specification:Nanum Pen Script"
       x="9678.3828"
       y="2576.5149"
       id="text35514"
       sodipodi:linespacing="125%"><tspan
         sodipodi:role="line"
         id="tspan35516"
         x="9678.3828"
         y="2576.5149"
         style="font-family:serif;-inkscape-font-specification:serif">CHUMASHAN LANGUAGES</tspan></text>
  </g>
</svg>
